# Blender v2.80 (sub 75) OBJ File: ''
# www.blender.org
mtllib b.mtl
o Text_Text.002
v 0.199179 0.000000 -0.240246
v 0.102669 0.000000 -0.240246
v 0.102669 0.000000 0.000000
v 0.205339 0.000000 0.000000
v 0.205339 0.000000 -0.140657
v 0.512320 0.000000 -0.140657
v 0.513347 0.000000 -0.140657
v 0.513347 0.000000 -0.150924
v 0.513347 0.000000 -0.513347
v 0.000000 0.000000 -0.513347
v 0.000000 0.000000 -0.415811
v 0.410678 0.000000 -0.415811
v 0.410678 0.000000 -0.240246
vn 0.0000 1.0000 0.0000
vn 0.0000 0.0000 1.0000
usemtl daemon.red
s off
f 11//1 9//1 10//1
f 11//1 12//1 9//1
f 12//1 8//1 9//1
f 13//1 8//1 12//1
f 3//1 1//1 2//1
f 3//1 5//1 1//1
f 5//1 13//1 1//1
f 5//1 8//1 13//1
f 5//1 7//1 8//1
f 3//1 4//1 5//1
f 6//2 7//2 5//2
