# Blender v2.80 (sub 75) OBJ File: ''
# www.blender.org
mtllib g.mtl
o Text_Text.007
v 0.000000 0.000000 0.000000
v 0.512320 0.000000 0.000000
v 0.513347 0.000000 0.000000
v 0.513347 0.000000 -0.513347
v 0.413758 0.000000 -0.513347
v 0.413758 0.000000 -0.100616
v 0.101643 0.000000 -0.100616
v 0.101643 0.000000 -0.513347
v 0.000000 0.000000 -0.513347
vn 0.0000 1.0000 0.0000
vn 0.0000 0.0000 1.0000
usemtl daemon.red
s off
f 1//1 8//1 9//1
f 1//1 7//1 8//1
f 6//1 4//1 5//1
f 6//1 3//1 4//1
f 1//1 6//1 7//1
f 1//1 3//1 6//1
f 2//2 3//2 1//2
