# Blender v2.80 (sub 75) OBJ File: ''
# www.blender.org
mtllib h.mtl
o Text_Text.008
v 0.513347 0.000000 0.000000
v 0.513347 0.000000 -0.513347
v 0.510267 0.000000 -0.512320
v 0.000000 0.000000 -0.513347
v 0.000000 0.000000 -0.410678
v 0.410678 0.000000 -0.410678
v 0.410678 0.000000 -0.102669
v 0.000000 0.000000 -0.102669
v 0.000000 0.000000 0.000000
vn 0.0000 1.0000 0.0000
usemtl daemon.red
s off
f 5//1 3//1 4//1
f 3//1 1//1 2//1
f 5//1 6//1 3//1
f 6//1 1//1 3//1
f 7//1 1//1 6//1
f 9//1 7//1 8//1
f 9//1 1//1 7//1
