# Blender v2.80 (sub 75) OBJ File: ''
# www.blender.org
mtllib l.mtl
o Text_Text.012
v 0.514667 0.000000 -0.138667
v 0.514667 0.000000 -0.012000
v 0.642667 0.000000 -0.012000
v 0.642667 0.000000 -0.657333
v 0.006667 0.000000 -0.658667
v 0.006667 0.000000 -0.012000
v 0.136000 0.000000 -0.012000
v 0.136000 0.000000 -0.140000
v 0.514667 0.000000 -0.268000
v 0.136000 0.000000 -0.268000
v 0.136000 0.000000 -0.526667
v 0.514667 0.000000 -0.526667
vn 0.0000 1.0000 0.0000
usemtl daemon.red
s off
f 6//1 11//1 5//1
f 11//1 4//1 5//1
f 11//1 12//1 4//1
f 12//1 3//1 4//1
f 6//1 10//1 11//1
f 9//1 3//1 12//1
f 6//1 8//1 10//1
f 8//1 9//1 10//1
f 8//1 1//1 9//1
f 1//1 3//1 9//1
f 6//1 7//1 8//1
f 2//1 3//1 1//1
