# Blender v2.80 (sub 75) OBJ File: ''
# www.blender.org
mtllib o.mtl
o Text_Text.015
v -0.054052 0.000000 -0.303720
v 0.066113 0.000000 -0.315358
v -0.053887 0.000000 -0.318025
v 0.065391 0.000000 -0.299413
v -0.054541 0.000000 -0.290142
v 0.064557 0.000000 -0.284241
v -0.055345 0.000000 -0.277296
v 0.063613 0.000000 -0.269837
v -0.056455 0.000000 -0.265185
v 0.062557 0.000000 -0.256198
v -0.057861 0.000000 -0.253816
v 0.061391 0.000000 -0.243317
v -0.059554 0.000000 -0.243192
v 0.060113 0.000000 -0.231192
v -0.061524 0.000000 -0.233317
v -0.063764 0.000000 -0.224198
v 0.058724 0.000000 -0.219816
v -0.066262 0.000000 -0.215838
v 0.057224 0.000000 -0.209185
v -0.069010 0.000000 -0.208241
v 0.055613 0.000000 -0.199296
v -0.072000 0.000000 -0.201413
v -0.075220 0.000000 -0.195358
v 0.053891 0.000000 -0.190142
v -0.078970 0.000000 -0.189386
v 0.052057 0.000000 -0.181720
v -0.082881 0.000000 -0.183469
v -0.086949 0.000000 -0.177608
v 0.050113 0.000000 -0.174025
v -0.091171 0.000000 -0.171803
v 0.047752 0.000000 -0.166776
v -0.095541 0.000000 -0.166053
v 0.045335 0.000000 -0.159704
v -0.100054 0.000000 -0.160358
v -0.104706 0.000000 -0.154719
v 0.042863 0.000000 -0.152817
v -0.109492 0.000000 -0.149136
v 0.040335 0.000000 -0.146124
v -0.114408 0.000000 -0.143608
v 0.037752 0.000000 -0.139635
v -0.119449 0.000000 -0.138136
v 0.035113 0.000000 -0.133358
v -0.124610 0.000000 -0.132719
v 0.032419 0.000000 -0.127304
v -0.129887 0.000000 -0.127358
v -0.135387 0.000000 -0.121802
v 0.029669 0.000000 -0.121482
v -0.141220 0.000000 -0.116463
v 0.026863 0.000000 -0.115900
v -0.147387 0.000000 -0.111338
v 0.024002 0.000000 -0.110568
v -0.153887 0.000000 -0.106420
v 0.021085 0.000000 -0.105496
v -0.160720 0.000000 -0.101706
v 0.018113 0.000000 -0.100692
v -0.167887 0.000000 -0.097192
v 0.014696 0.000000 -0.095746
v -0.175387 0.000000 -0.092871
v 0.011107 0.000000 -0.090908
v -0.183220 0.000000 -0.088741
v 0.007342 0.000000 -0.086171
v -0.191387 0.000000 -0.084796
v 0.003397 0.000000 -0.081531
v -0.199887 0.000000 -0.081031
v -0.000733 0.000000 -0.076984
v -0.208720 0.000000 -0.077442
v -0.217887 0.000000 -0.074025
v -0.005054 0.000000 -0.072525
v -0.227303 0.000000 -0.070859
v -0.009568 0.000000 -0.068149
v -0.236881 0.000000 -0.068031
v 0.255841 0.000000 -0.067902
v 0.282218 0.000000 -0.068148
v 0.268676 0.000000 -0.068150
v -0.014282 0.000000 -0.063852
v 0.296473 0.000000 -0.067888
v -0.246616 0.000000 -0.065546
v 0.243711 0.000000 -0.067412
v 0.311446 0.000000 -0.067358
v 0.232280 0.000000 -0.066692
v 0.311446 0.000000 0.047308
v 0.221543 0.000000 -0.065749
v 0.211496 0.000000 -0.064593
v -0.256504 0.000000 -0.063408
v 0.202134 0.000000 -0.063233
v -0.019200 0.000000 -0.059629
v -0.266541 0.000000 -0.061621
v 0.193453 0.000000 -0.061679
v 0.185447 0.000000 -0.059940
v -0.276720 0.000000 -0.060192
v -0.287039 0.000000 -0.059123
v 0.178113 0.000000 -0.058025
v -0.024325 0.000000 -0.055476
v -0.340554 0.000000 0.064642
v -0.329610 0.000000 -0.058552
v -0.340554 0.000000 -0.059358
v -0.297492 0.000000 -0.058420
v -0.318782 0.000000 -0.058130
v -0.308075 0.000000 -0.058088
v 0.171169 0.000000 -0.055971
v 0.164341 0.000000 -0.053815
v -0.029664 0.000000 -0.051387
v 0.157634 0.000000 -0.051567
v 0.151051 0.000000 -0.049235
v -0.035220 0.000000 -0.047358
v 0.144598 0.000000 -0.046829
v -0.040914 0.000000 -0.043413
v 0.138280 0.000000 -0.044358
v 0.132100 0.000000 -0.041832
v -0.046659 0.000000 -0.039574
v 0.126064 0.000000 -0.039260
v -0.052449 0.000000 -0.035838
v 0.120175 0.000000 -0.036650
v 0.114440 0.000000 -0.034013
v -0.058282 0.000000 -0.032198
v 0.108862 0.000000 -0.031357
v -0.064152 0.000000 -0.028651
v 0.103446 0.000000 -0.028692
v 0.098113 0.000000 -0.025608
v -0.070054 0.000000 -0.025192
v 0.092780 0.000000 -0.022358
v -0.075983 0.000000 -0.021816
v 0.087446 0.000000 -0.018942
v -0.081936 0.000000 -0.018519
v 0.082113 0.000000 -0.015358
v -0.087908 0.000000 -0.015296
v 0.076780 0.000000 -0.011608
v -0.093893 0.000000 -0.012142
v -0.099888 0.000000 -0.009054
v 0.071446 0.000000 -0.007692
v -0.105887 0.000000 -0.006025
v 0.066113 0.000000 -0.003608
v -0.101944 0.000000 -0.003720
v -0.098122 0.000000 -0.001476
v 0.060780 0.000000 0.000642
v -0.094429 0.000000 0.000704
v 0.055446 0.000000 0.005058
v -0.090875 0.000000 0.002814
v -0.087469 0.000000 0.004851
v -0.084220 0.000000 0.006808
v 0.050113 0.000000 0.009642
v -0.081139 0.000000 0.008683
v -0.078233 0.000000 0.010469
v 0.044780 0.000000 0.014392
v -0.075512 0.000000 0.012163
v -0.072986 0.000000 0.013759
v -0.070663 0.000000 0.015254
v 0.039446 0.000000 0.019308
v -0.068554 0.000000 0.016642
v -0.066554 0.000000 0.018002
v -0.064554 0.000000 0.019413
v 0.034225 0.000000 0.024698
v -0.062554 0.000000 0.020871
v -0.060554 0.000000 0.022370
v -0.058554 0.000000 0.023906
v -0.056554 0.000000 0.025475
v 0.029230 0.000000 0.030203
v -0.054554 0.000000 0.027071
v -0.052554 0.000000 0.028691
v -0.050554 0.000000 0.030329
v 0.024467 0.000000 0.035829
v 0.301531 0.000000 0.046781
v -0.048554 0.000000 0.031981
v -0.046554 0.000000 0.033642
v -0.044554 0.000000 0.035308
v -0.042581 0.000000 0.037281
v 0.019940 0.000000 0.041580
v 0.291792 0.000000 0.046531
v -0.040665 0.000000 0.039203
v -0.038804 0.000000 0.041079
v -0.036998 0.000000 0.042913
v 0.015654 0.000000 0.047460
v 0.282238 0.000000 0.046558
v -0.035248 0.000000 0.044710
v -0.033554 0.000000 0.046475
v -0.031915 0.000000 0.048212
v 0.272878 0.000000 0.046864
v 0.263723 0.000000 0.047447
v 0.254780 0.000000 0.048308
v 0.011613 0.000000 0.053475
v -0.030331 0.000000 0.049926
v 0.246059 0.000000 0.049447
v 0.237570 0.000000 0.050864
v -0.028804 0.000000 0.051621
v 0.229321 0.000000 0.052558
v -0.027331 0.000000 0.053302
v 0.221323 0.000000 0.054531
v -0.025915 0.000000 0.054974
v 0.007822 0.000000 0.059629
v 0.213584 0.000000 0.056781
v -0.024554 0.000000 0.056642
v -0.023194 0.000000 0.058725
v 0.206113 0.000000 0.059308
v -0.021788 0.000000 0.060975
v 0.198837 0.000000 0.062085
v 0.004286 0.000000 0.065926
v -0.020345 0.000000 0.063392
v 0.191681 0.000000 0.065074
v -0.018875 0.000000 0.065975
v -0.338220 0.000000 0.064948
v -0.335887 0.000000 0.065203
v 0.184655 0.000000 0.068267
v -0.333554 0.000000 0.065413
v -0.331220 0.000000 0.065580
v -0.328887 0.000000 0.065710
v -0.326554 0.000000 0.065808
v -0.324220 0.000000 0.065879
v -0.321887 0.000000 0.065926
v -0.319554 0.000000 0.065954
v 0.001009 0.000000 0.072371
v -0.317220 0.000000 0.065969
v -0.314887 0.000000 0.065974
v -0.312554 0.000000 0.065975
v -0.283220 0.000000 0.065975
v -0.274635 0.000000 0.066697
v -0.017385 0.000000 0.068725
v -0.266208 0.000000 0.067531
v -0.257929 0.000000 0.068475
v 0.177767 0.000000 0.071654
v -0.249788 0.000000 0.069531
v -0.015887 0.000000 0.071642
v -0.241777 0.000000 0.070697
v -0.233887 0.000000 0.071975
v -0.014389 0.000000 0.074725
v 0.171028 0.000000 0.075227
v -0.226108 0.000000 0.073364
v -0.002004 0.000000 0.078969
v -0.218430 0.000000 0.074864
v -0.012899 0.000000 0.077975
v -0.210845 0.000000 0.076475
v 0.164446 0.000000 0.078975
v -0.203344 0.000000 0.078197
v -0.011429 0.000000 0.081392
v -0.195916 0.000000 0.080031
v -0.004749 0.000000 0.085724
v 0.158031 0.000000 0.082890
v -0.188554 0.000000 0.081975
v -0.009986 0.000000 0.084975
v -0.181610 0.000000 0.084113
v 0.151792 0.000000 0.086963
v -0.174782 0.000000 0.086524
v -0.008580 0.000000 0.088725
v -0.007220 0.000000 0.092642
v -0.168074 0.000000 0.089204
v 0.145738 0.000000 0.091183
v -0.161492 0.000000 0.092148
v 0.139878 0.000000 0.095543
v -0.155039 0.000000 0.095351
v -0.148720 0.000000 0.098808
v 0.134223 0.000000 0.100032
v -0.142541 0.000000 0.102516
v 0.128780 0.000000 0.104642
v -0.136504 0.000000 0.106469
v 0.123558 0.000000 0.109752
v -0.130616 0.000000 0.110663
v 0.118564 0.000000 0.115080
v -0.124881 0.000000 0.115092
v 0.113800 0.000000 0.120621
v -0.119303 0.000000 0.119754
v -0.113887 0.000000 0.124642
v 0.109273 0.000000 0.126370
v -0.108693 0.000000 0.130004
v 0.104987 0.000000 0.132323
v -0.103776 0.000000 0.135426
v 0.100946 0.000000 0.138475
v -0.099137 0.000000 0.140912
v 0.097155 0.000000 0.144821
v -0.094776 0.000000 0.146469
v 0.093619 0.000000 0.151358
v -0.090693 0.000000 0.152099
v 0.090342 0.000000 0.158079
v -0.086887 0.000000 0.157808
v -0.083359 0.000000 0.163601
v 0.087329 0.000000 0.164981
v -0.080109 0.000000 0.169481
v 0.084584 0.000000 0.172059
v -0.077137 0.000000 0.175454
v 0.082113 0.000000 0.179308
v -0.074443 0.000000 0.181524
v 0.079556 0.000000 0.187058
v -0.072026 0.000000 0.187696
v 0.077212 0.000000 0.194969
v -0.069887 0.000000 0.193975
v -0.068249 0.000000 0.200392
v 0.075071 0.000000 0.203038
v -0.066671 0.000000 0.206981
v 0.073125 0.000000 0.211259
v -0.065158 0.000000 0.213746
v 0.071365 0.000000 0.219629
v -0.063714 0.000000 0.220691
v 0.069780 0.000000 0.228142
v -0.062345 0.000000 0.227821
v -0.061054 0.000000 0.235142
v 0.068362 0.000000 0.236794
v -0.059846 0.000000 0.242656
v 0.067101 0.000000 0.245580
v -0.058726 0.000000 0.250370
v 0.065988 0.000000 0.254496
v -0.057699 0.000000 0.258288
v 0.065014 0.000000 0.263537
v -0.056770 0.000000 0.266413
v 0.064170 0.000000 0.272698
v -0.055942 0.000000 0.274752
v 0.063446 0.000000 0.281975
v -0.055220 0.000000 0.283308
v 0.063446 0.000000 0.284001
v -0.054915 0.000000 0.287615
v 0.063446 0.000000 0.286074
v 0.063446 0.000000 0.288183
v -0.054665 0.000000 0.291870
v 0.063446 0.000000 0.290321
v 0.063446 0.000000 0.292477
v -0.054470 0.000000 0.296079
v 0.063446 0.000000 0.294642
v 0.063446 0.000000 0.296807
v -0.054331 0.000000 0.300247
v 0.063446 0.000000 0.298963
v 0.063446 0.000000 0.301100
v -0.054248 0.000000 0.304377
v 0.063446 0.000000 0.303210
v 0.063446 0.000000 0.305282
v -0.054220 0.000000 0.308475
v 0.063446 0.000000 0.307308
v 0.063446 0.000000 0.309615
v -0.054248 0.000000 0.312545
v 0.063446 0.000000 0.311870
v 0.063446 0.000000 0.314079
v -0.054331 0.000000 0.316592
v 0.063446 0.000000 0.316247
v 0.063446 0.000000 0.318377
v -0.054470 0.000000 0.320621
v 0.063446 0.000000 0.320475
v 0.063446 0.000000 0.322545
v -0.054665 0.000000 0.324635
v 0.063446 0.000000 0.324592
v 0.063446 0.000000 0.326621
v -0.054915 0.000000 0.328641
v 0.063446 0.000000 0.328635
v 0.063446 0.000000 0.330641
v -0.055220 0.000000 0.332642
v 0.063446 0.000000 0.332642
vn 0.0000 1.0000 0.0000
vn 0.0000 0.0000 1.0000
usemtl daemon.red
s 1
f 1//1 2//1 3//1
f 1//1 4//1 2//1
f 5//1 4//1 1//1
f 5//1 6//1 4//1
f 7//1 6//1 5//1
f 7//1 8//1 6//1
f 9//1 8//1 7//1
f 9//1 10//1 8//1
f 11//1 10//1 9//1
f 11//1 12//1 10//1
f 13//1 12//1 11//1
f 13//1 14//1 12//1
f 15//1 14//1 13//1
f 16//1 14//1 15//1
f 16//1 17//1 14//1
f 18//1 17//1 16//1
f 18//1 19//1 17//1
f 20//1 19//1 18//1
f 20//1 21//1 19//1
f 22//1 21//1 20//1
f 23//1 21//1 22//1
f 23//1 24//1 21//1
f 25//1 24//1 23//1
f 25//1 26//1 24//1
f 27//1 26//1 25//1
f 28//1 26//1 27//1
f 28//1 29//1 26//1
f 30//1 29//1 28//1
f 30//1 31//1 29//1
f 32//1 31//1 30//1
f 32//1 33//1 31//1
f 34//1 33//1 32//1
f 35//1 33//1 34//1
f 35//1 36//1 33//1
f 37//1 36//1 35//1
f 37//1 38//1 36//1
f 39//1 38//1 37//1
f 39//1 40//1 38//1
f 41//1 40//1 39//1
f 41//1 42//1 40//1
f 43//1 42//1 41//1
f 43//1 44//1 42//1
f 45//1 44//1 43//1
f 46//1 44//1 45//1
f 46//1 47//1 44//1
f 48//1 47//1 46//1
f 48//1 49//1 47//1
f 50//1 49//1 48//1
f 50//1 51//1 49//1
f 52//1 51//1 50//1
f 52//1 53//1 51//1
f 54//1 53//1 52//1
f 54//1 55//1 53//1
f 56//1 55//1 54//1
f 56//1 57//1 55//1
f 58//1 57//1 56//1
f 58//1 59//1 57//1
f 60//1 59//1 58//1
f 60//1 61//1 59//1
f 62//1 61//1 60//1
f 62//1 63//1 61//1
f 64//1 63//1 62//1
f 64//1 65//1 63//1
f 66//1 65//1 64//1
f 67//1 65//1 66//1
f 67//1 68//1 65//1
f 69//1 68//1 67//1
f 69//1 70//1 68//1
f 71//1 70//1 69//1
f 72//1 73//1 74//1
f 71//1 75//1 70//1
f 72//1 76//1 73//1
f 77//1 75//1 71//1
f 78//1 76//1 72//1
f 78//1 79//1 76//1
f 80//1 79//1 78//1
f 80//1 81//1 79//1
f 82//1 81//1 80//1
f 83//1 81//1 82//1
f 84//1 75//1 77//1
f 85//1 81//1 83//1
f 84//1 86//1 75//1
f 87//1 86//1 84//1
f 88//1 81//1 85//1
f 89//1 81//1 88//1
f 90//1 86//1 87//1
f 91//1 86//1 90//1
f 92//1 81//1 89//1
f 91//1 93//1 86//1
f 94//1 95//1 96//1
f 97//1 93//1 91//1
f 94//1 98//1 95//1
f 99//1 93//1 97//1
f 94//1 99//1 98//1
f 94//1 93//1 99//1
f 100//1 81//1 92//1
f 101//1 81//1 100//1
f 94//1 102//1 93//1
f 103//1 81//1 101//1
f 104//1 81//1 103//1
f 94//1 105//1 102//1
f 106//1 81//1 104//1
f 94//1 107//1 105//1
f 108//1 81//1 106//1
f 109//1 81//1 108//1
f 94//1 110//1 107//1
f 111//1 81//1 109//1
f 94//1 112//1 110//1
f 113//1 81//1 111//1
f 114//1 81//1 113//1
f 94//1 115//1 112//1
f 116//1 81//1 114//1
f 94//1 117//1 115//1
f 118//1 81//1 116//1
f 119//1 81//1 118//1
f 94//1 120//1 117//1
f 121//1 81//1 119//1
f 94//1 122//1 120//1
f 123//1 81//1 121//1
f 94//1 124//1 122//1
f 125//1 81//1 123//1
f 94//1 126//1 124//1
f 127//1 81//1 125//1
f 94//1 128//1 126//1
f 94//1 129//1 128//1
f 130//1 81//1 127//1
f 94//1 131//1 129//1
f 132//1 81//1 130//1
f 94//1 133//1 131//1
f 94//1 134//1 133//1
f 135//1 81//1 132//1
f 94//1 136//1 134//1
f 137//1 81//1 135//1
f 94//1 138//1 136//1
f 94//1 139//1 138//1
f 94//1 140//1 139//1
f 141//1 81//1 137//1
f 94//1 142//1 140//1
f 94//1 143//1 142//1
f 144//1 81//1 141//1
f 94//1 145//1 143//1
f 94//1 146//1 145//1
f 94//1 147//1 146//1
f 148//1 81//1 144//1
f 94//1 149//1 147//1
f 94//1 150//1 149//1
f 94//1 151//1 150//1
f 152//1 81//1 148//1
f 94//1 153//1 151//1
f 94//1 154//1 153//1
f 94//1 155//1 154//1
f 94//1 156//1 155//1
f 157//1 81//1 152//1
f 94//1 158//1 156//1
f 94//1 159//1 158//1
f 94//1 160//1 159//1
f 161//1 162//1 157//1
f 162//1 81//1 157//1
f 94//1 163//1 160//1
f 94//1 164//1 163//1
f 94//1 165//1 164//1
f 94//1 166//1 165//1
f 167//1 168//1 161//1
f 168//1 162//1 161//1
f 94//1 169//1 166//1
f 94//1 170//1 169//1
f 94//1 171//1 170//1
f 172//1 173//1 167//1
f 173//1 168//1 167//1
f 94//1 174//1 171//1
f 94//1 175//1 174//1
f 94//1 176//1 175//1
f 172//1 177//1 173//1
f 172//1 178//1 177//1
f 172//1 179//1 178//1
f 180//1 179//1 172//1
f 94//1 181//1 176//1
f 180//1 182//1 179//1
f 180//1 183//1 182//1
f 94//1 184//1 181//1
f 180//1 185//1 183//1
f 94//1 186//1 184//1
f 180//1 187//1 185//1
f 94//1 188//1 186//1
f 189//1 187//1 180//1
f 189//1 190//1 187//1
f 94//1 191//1 188//1
f 94//1 192//1 191//1
f 189//1 193//1 190//1
f 94//1 194//1 192//1
f 189//1 195//1 193//1
f 196//1 195//1 189//1
f 94//1 197//1 194//1
f 196//1 198//1 195//1
f 94//1 199//1 197//1
f 200//1 199//1 94//1
f 201//1 199//1 200//1
f 196//1 202//1 198//1
f 203//1 199//1 201//1
f 204//1 199//1 203//1
f 205//1 199//1 204//1
f 206//1 199//1 205//1
f 207//1 199//1 206//1
f 208//1 199//1 207//1
f 209//1 199//1 208//1
f 210//1 202//1 196//1
f 211//1 199//1 209//1
f 212//1 199//1 211//1
f 213//1 199//1 212//1
f 214//2 199//2 213//2
f 215//1 199//1 214//1
f 215//1 216//1 199//1
f 217//1 216//1 215//1
f 218//1 216//1 217//1
f 210//1 219//1 202//1
f 220//1 216//1 218//1
f 220//1 221//1 216//1
f 222//1 221//1 220//1
f 223//1 221//1 222//1
f 223//1 224//1 221//1
f 210//1 225//1 219//1
f 226//1 224//1 223//1
f 227//1 225//1 210//1
f 228//1 224//1 226//1
f 228//1 229//1 224//1
f 230//1 229//1 228//1
f 227//1 231//1 225//1
f 232//1 229//1 230//1
f 232//1 233//1 229//1
f 234//1 233//1 232//1
f 235//1 231//1 227//1
f 235//1 236//1 231//1
f 237//1 233//1 234//1
f 237//1 238//1 233//1
f 239//1 238//1 237//1
f 235//1 240//1 236//1
f 241//1 238//1 239//1
f 241//1 242//1 238//1
f 243//1 240//1 235//1
f 244//1 242//1 241//1
f 243//1 245//1 240//1
f 244//1 243//1 242//1
f 246//1 243//1 244//1
f 243//1 247//1 245//1
f 248//1 243//1 246//1
f 248//1 247//1 243//1
f 249//1 247//1 248//1
f 249//1 250//1 247//1
f 251//1 250//1 249//1
f 251//1 252//1 250//1
f 253//1 252//1 251//1
f 253//1 254//1 252//1
f 255//1 254//1 253//1
f 255//1 256//1 254//1
f 257//1 256//1 255//1
f 257//1 258//1 256//1
f 259//1 258//1 257//1
f 260//1 258//1 259//1
f 260//1 261//1 258//1
f 262//1 261//1 260//1
f 262//1 263//1 261//1
f 264//1 263//1 262//1
f 264//1 265//1 263//1
f 266//1 265//1 264//1
f 266//1 267//1 265//1
f 268//1 267//1 266//1
f 268//1 269//1 267//1
f 270//1 269//1 268//1
f 270//1 271//1 269//1
f 272//1 271//1 270//1
f 273//1 271//1 272//1
f 273//1 274//1 271//1
f 275//1 274//1 273//1
f 275//1 276//1 274//1
f 277//1 276//1 275//1
f 277//1 278//1 276//1
f 279//1 278//1 277//1
f 279//1 280//1 278//1
f 281//1 280//1 279//1
f 281//1 282//1 280//1
f 283//1 282//1 281//1
f 284//1 282//1 283//1
f 284//1 285//1 282//1
f 286//1 285//1 284//1
f 286//1 287//1 285//1
f 288//1 287//1 286//1
f 288//1 289//1 287//1
f 290//1 289//1 288//1
f 290//1 291//1 289//1
f 292//1 291//1 290//1
f 293//1 291//1 292//1
f 293//1 294//1 291//1
f 295//1 294//1 293//1
f 295//1 296//1 294//1
f 297//1 296//1 295//1
f 297//1 298//1 296//1
f 299//1 298//1 297//1
f 299//1 300//1 298//1
f 301//1 300//1 299//1
f 301//1 302//1 300//1
f 303//1 302//1 301//1
f 303//1 304//1 302//1
f 305//1 304//1 303//1
f 305//1 306//1 304//1
f 307//1 306//1 305//1
f 307//1 308//1 306//1
f 307//1 309//1 308//1
f 310//1 309//1 307//1
f 310//1 311//1 309//1
f 310//1 312//1 311//1
f 313//1 312//1 310//1
f 313//1 314//1 312//1
f 313//1 315//1 314//1
f 316//1 315//1 313//1
f 316//1 317//1 315//1
f 316//1 318//1 317//1
f 319//1 318//1 316//1
f 319//1 320//1 318//1
f 319//1 321//1 320//1
f 322//1 321//1 319//1
f 322//1 323//1 321//1
f 322//1 324//1 323//1
f 325//1 324//1 322//1
f 325//1 326//1 324//1
f 325//1 327//1 326//1
f 328//1 327//1 325//1
f 328//1 329//1 327//1
f 328//1 330//1 329//1
f 331//1 330//1 328//1
f 331//1 332//1 330//1
f 331//1 333//1 332//1
f 334//1 333//1 331//1
f 334//1 335//1 333//1
f 334//1 336//1 335//1
f 337//1 336//1 334//1
f 337//1 338//1 336//1
f 337//1 339//1 338//1
f 340//1 339//1 337//1
f 340//1 341//1 339//1
