# Blender v2.80 (sub 75) OBJ File: ''
# www.blender.org
mtllib r.mtl
o Text_Text.018
v 0.402667 0.000000 -0.521333
v 0.660000 0.000000 -0.521333
v 0.660000 0.000000 -0.652000
v 0.013333 0.000000 -0.652000
v 0.013333 0.000000 -0.521333
v 0.272000 0.000000 -0.521333
v 0.272000 0.000000 -0.142667
v 0.014667 0.000000 -0.142667
v 0.014667 0.000000 -0.013333
v 0.662667 0.000000 -0.013333
v 0.662667 0.000000 -0.142667
v 0.404000 0.000000 -0.142667
v 0.402667 0.000000 -0.142667
vn 0.0000 1.0000 0.0000
vn 0.0000 0.0000 1.0000
usemtl daemon.red
s off
f 5//1 3//1 4//1
f 5//1 2//1 3//1
f 6//2 2//2 5//2
f 7//1 1//1 6//1
f 1//2 2//2 6//2
f 7//1 13//1 1//1
f 9//1 7//1 8//1
f 9//1 13//1 7//1
f 9//1 12//1 13//1
f 9//1 11//1 12//1
f 9//1 10//1 11//1
