# Blender v2.80 (sub 75) OBJ File: ''
# www.blender.org
mtllib v.mtl
o Text_Text.022
v 0.102669 0.000000 -0.410678
v 0.513347 0.000000 -0.410678
v 0.513347 0.000000 -0.308008
v 0.359343 0.000000 -0.308008
v 0.359343 0.000000 -0.154004
v 0.256674 0.000000 -0.154004
v 0.256674 0.000000 -0.308008
v 0.256674 0.000000 -0.308008
v 0.102669 0.000000 -0.308008
v 0.102669 0.000000 0.000000
v 0.001027 0.000000 0.000000
v 0.001027 0.000000 -0.513347
v 0.102669 0.000000 -0.513347
vn 0.0000 1.0000 0.0000
vn 0.0000 0.0000 1.0000
usemtl daemon.red
s off
f 11//1 13//1 12//1
f 11//1 1//1 13//1
f 11//1 9//1 1//1
f 9//1 2//1 1//1
f 9//1 3//1 2//1
f 11//1 10//1 9//1
f 7//2 3//2 9//2
f 6//1 4//1 7//1
f 4//2 3//2 7//2
f 6//1 5//1 4//1
