# Blender v2.80 (sub 75) OBJ File: ''
# www.blender.org
mtllib w.mtl
o Text_Text.023
v 0.410678 0.000000 -0.205339
v 0.102669 0.000000 -0.205339
v 0.102669 0.000000 -0.205339
v 0.102669 0.000000 0.000000
v 0.000000 0.000000 0.000000
v 0.000000 0.000000 -0.513347
v 0.102669 0.000000 -0.513347
v 0.102669 0.000000 -0.308008
v 0.410678 0.000000 -0.308008
v 0.410678 0.000000 -0.513347
v 0.513347 0.000000 -0.513347
v 0.513347 0.000000 0.000000
v 0.410678 0.000000 0.000000
vn 0.0000 1.0000 0.0000
usemtl daemon.red
s off
f 5//1 7//1 6//1
f 5//1 8//1 7//1
f 9//1 11//1 10//1
f 9//1 12//1 11//1
f 5//1 2//1 8//1
f 2//1 9//1 8//1
f 2//1 1//1 9//1
f 1//1 12//1 9//1
f 5//1 4//1 2//1
f 13//1 12//1 1//1
